name Run_50002_IK.mot
datacolumns 164
datarows 4
range 2.09 2.12
endheader
time	         pelvis_tilt	         pelvis_list	     pelvis_rotation	           pelvis_tx	           pelvis_ty	           pelvis_tz	       hip_flexion_r	     hip_adduction_r	      hip_rotation_r	        knee_angle_r	       ankle_angle_r	       hip_flexion_l	     hip_adduction_l	      hip_rotation_l	        knee_angle_l	       ankle_angle_l	    lumbar_extension	      lumbar_bending	     lumbar_rotation	          arm_flex_r	           arm_add_r	           arm_rot_r	        elbow_flex_r	           pro_sup_r	          arm_flex_l	           arm_add_l	           arm_rot_l	        elbow_flex_l	           pro_sup_l	    subtalar_angle_r	         mtp_angle_r	    subtalar_angle_l	         mtp_angle_l	        wrist_flex_r	         wrist_dev_r	        wrist_flex_l	         wrist_dev_l	             LASI_tx	             LASI_ty	             LASI_tz	             RASI_tx	             RASI_ty	             RASI_tz	             LPSI_tx	             LPSI_ty	             LPSI_tz	             RPSI_tx	             RPSI_ty	             RPSI_tz	             RTH1_tx	             RTH1_ty	             RTH1_tz	             RTH2_tx	             RTH2_ty	             RTH2_tz	             RTH3_tx	             RTH3_ty	             RTH3_tz	             LTH1_tx	             LTH1_ty	             LTH1_tz	             LTH2_tx	             LTH2_ty	             LTH2_tz	             LTH3_tx	             LTH3_ty	             LTH3_tz	             RTB1_tx	             RTB1_ty	             RTB1_tz	             RTB2_tx	             RTB2_ty	             RTB2_tz	             RTB3_tx	             RTB3_ty	             RTB3_tz	             LTB1_tx	             LTB1_ty	             LTB1_tz	             LTB2_tx	             LTB2_ty	             LTB2_tz	             LTB3_tx	             LTB3_ty	             LTB3_tz	             RCAL_tx	             RCAL_ty	             RCAL_tz	             RTOE_tx	             RTOE_ty	             RTOE_tz	             RMT5_tx	             RMT5_ty	             RMT5_tz	             LCAL_tx	             LCAL_ty	             LCAL_tz	             LTOE_tx	             LTOE_ty	             LTOE_tz	             LMT5_tx	             LMT5_ty	             LMT5_tz	             LACR_tx	             LACR_ty	             LACR_tz	             RACR_tx	             RACR_ty	             RACR_tz	             CLAV_tx	             CLAV_ty	             CLAV_tz	               C7_tx	               C7_ty	               C7_tz	             RUA1_tx	             RUA1_ty	             RUA1_tz	             RUA2_tx	             RUA2_ty	             RUA2_tz	             RUA3_tx	             RUA3_ty	             RUA3_tz	             RLEL_tx	             RLEL_ty	             RLEL_tz	             RMEL_tx	             RMEL_ty	             RMEL_tz	             LUA1_tx	             LUA1_ty	             LUA1_tz	             LUA2_tx	             LUA2_ty	             LUA2_tz	             LUA3_tx	             LUA3_ty	             LUA3_tz	             LLEL_tx	             LLEL_ty	             LLEL_tz	             LMEL_tx	             LMEL_ty	             LMEL_tz	      RFAsuperior_tx	      RFAsuperior_ty	      RFAsuperior_tz	        RFAradius_tx	        RFAradius_ty	        RFAradius_tz	          RFAulna_tx	          RFAulna_ty	          RFAulna_tz	      LFAsuperior_tx	      LFAsuperior_ty	      LFAsuperior_tz	        LFAradius_tx	        LFAradius_ty	        LFAradius_tz	          LFAulna_tx	          LFAulna_ty	          LFAulna_tz	
2.09	        -15.10464136	          2.07453908	          1.81678310	          1.03306135	          0.98678884	         -0.34711098	         -2.23393311	          4.27209390	          1.02399395	        -76.19312954	        -17.68201420	         44.23631452	          7.82669169	         -2.64008973	        -12.99390442	         -1.98916185	          5.58003602	         -3.25811814	         11.34388323	        -24.37310733	        -18.73928149	         -6.83395023	        118.66685692	        117.84022599	        -58.15848964	        -19.23150328	        -17.71162422	        120.92205167	        103.30599802	          0.00000000	          0.00000000	          0.00000000	          0.00000000	          0.00000000	          0.00000000	          0.00000000	          0.00000000	          1.04834568	          1.01895789	         -0.43135868	          1.06302413	          1.01592154	         -0.23627226	          0.88236939	          1.09095163	         -0.39706382	          0.89802666	          1.08258256	         -0.28402009	          0.96377921	          0.90070525	         -0.18964213	          0.86496860	          0.78007409	         -0.21005086	          0.84881743	          0.62559471	         -0.23158811	          1.00065967	          0.91706627	         -0.53801442	          1.00065513	          0.75248402	         -0.48185396	          1.10681625	          0.65316238	         -0.48332605	          0.67727669	          0.46601254	         -0.30525647	          0.62973889	          0.54080176	         -0.23230528	          0.48569635	          0.49165141	         -0.30064266	          1.24908514	          0.47210557	         -0.41722808	          1.19031221	          0.34040843	         -0.44608771	          1.28078635	          0.25915902	         -0.38773356	          0.38456669	          0.60864787	         -0.26598343	          0.29711692	          0.40203716	         -0.35912921	          0.27098509	          0.42853678	         -0.26039375	          1.20505011	          0.09702772	         -0.33925538	          1.43014714	          0.16484329	         -0.33392603	          1.41012245	          0.07112421	         -0.39486479	          0.98663469	          1.53536663	         -0.50592959	          1.06966253	          1.49855125	         -0.20211558	          1.09160144	          1.46873149	         -0.34107151	          0.96626030	          1.54124670	         -0.34360967	          0.97816901	          1.40715626	         -0.11403733	          1.02702881	          1.34728155	         -0.09836315	          0.97291380	          1.27540048	         -0.03908129	          0.94977621	          1.21405513	         -0.00664714	          0.92273080	          1.18813402	         -0.08963805	          0.85822328	          1.49679276	         -0.53094173	          0.84581276	          1.42426163	         -0.57958626	          0.74973163	          1.40322177	         -0.58365092	          0.70141192	          1.35038376	         -0.60121033	          0.69989633	          1.32159425	         -0.51604930	          1.04460509	          1.17788622	         -0.04967327	          1.15470222	          1.18281626	         -0.19399563	          1.16571191	          1.13364425	         -0.14587943	          0.74112356	          1.27963912	         -0.61749901	          0.91324026	          1.20565405	         -0.57307726	          0.87567994	          1.15643398	         -0.60969130	
2.1	        -15.10039784	          2.21279919	          1.74732530	          1.03398171	          0.98032797	         -0.34769707	          0.25794276	          3.35158190	          0.16728062	        -83.11444540	        -14.95384727	         43.42521178	          7.78289027	         -5.18387056	        -14.43369621	         -3.05554004	          5.83883721	         -3.29249926	         10.78862388	        -25.41711896	        -18.75308018	         -7.47254301	        114.60785150	        116.84793940	        -56.54022793	        -18.55288411	        -16.95472303	        119.86494107	        103.32840253	          0.00000000	          0.00000000	          0.00000000	          0.00000000	          0.00000000	          0.00000000	          0.00000000	          0.00000000	          1.04974671	          1.01235883	         -0.43222332	          1.06434181	          1.01084416	         -0.23617423	          0.88378293	          1.08418430	         -0.39765564	          0.89906960	          1.07603394	         -0.28429032	          0.96516786	          0.89519501	         -0.19265977	          0.87066957	          0.77163137	         -0.21215898	          0.86066934	          0.61575638	         -0.22879440	          0.99932763	          0.90834430	         -0.53633997	          0.99633476	          0.74414647	         -0.48061371	          1.10048473	          0.64322035	         -0.48265695	          0.69372467	          0.46334360	         -0.29985075	          0.65158739	          0.54477811	         -0.22965649	          0.50471937	          0.50382393	         -0.29659825	          1.23859160	          0.45795631	         -0.41875217	          1.17497705	          0.32756741	         -0.44372816	          1.26452546	          0.24402474	         -0.38709858	          0.40994805	          0.63048545	         -0.26825858	          0.31410666	          0.42248801	         -0.34931350	          0.28995618	          0.45545944	         -0.25178153	          1.18274833	          0.09234191	         -0.33327345	          1.41097898	          0.14141981	         -0.33592633	          1.38360893	          0.05197071	         -0.39802769	          0.98710746	          1.52704072	         -0.50734953	          1.06799495	          1.49168964	         -0.20102342	          1.09151106	          1.46255043	         -0.34039943	          0.96614765	          1.53501963	         -0.34418041	          0.97390516	          1.40151133	         -0.11436436	          1.02140455	          1.34121785	         -0.09675206	          0.96569624	          1.27040274	         -0.03820436	          0.94109801	          1.21035674	         -0.00557192	          0.91600383	          1.18340991	         -0.08883975	          0.85871665	          1.48610110	         -0.53333041	          0.84870629	          1.41174777	         -0.58046893	          0.75321480	          1.38793114	         -0.58467863	          0.70630977	          1.33396923	         -0.60191771	          0.70519749	          1.30627950	         -0.51652970	          1.03511005	          1.16740851	         -0.04391551	          1.15089821	          1.15828139	         -0.18434856	          1.15571650	          1.11003671	         -0.13464489	          0.74709172	          1.26346835	         -0.61746851	          0.92054192	          1.19290228	         -0.57198858	          0.88384666	          1.14283309	         -0.60835542	
2.11	        -15.23857321	          2.46414730	          1.89326042	          1.03425736	          0.97314593	         -0.34869435	          3.12582830	          2.14203091	         -0.77245068	        -89.78500355	        -11.61278579	         43.40322483	          7.94924794	         -7.82122606	        -18.20015667	         -3.13545090	          6.20769974	         -3.52386853	          9.86306320	        -26.22312792	        -18.77548713	         -7.95413502	        110.18752747	        116.27320970	        -54.78197779	        -17.86113856	        -16.16086837	        118.69131030	        103.08387817	          0.00000000	          0.00000000	          0.00000000	          0.00000000	          0.00000000	          0.00000000	          0.00000000	          0.00000000	          1.05075988	          1.00519887	         -0.43325347	          1.06539788	          1.00497682	         -0.23632343	          0.88480858	          1.07685615	         -0.39841301	          0.89964768	          1.06910813	         -0.28471746	          0.96784294	          0.88854444	         -0.19455854	          0.87725788	          0.76215618	         -0.21353420	          0.87408045	          0.60501215	         -0.22500772	          0.99730517	          0.89962313	         -0.53475694	          0.99175709	          0.73546013	         -0.47960733	          1.09485796	          0.63375567	         -0.48246197	          0.71234827	          0.45926734	         -0.29313202	          0.67576592	          0.54682568	         -0.22674897	          0.52700101	          0.51286935	         -0.29272406	          1.22862332	          0.44404930	         -0.41943512	          1.15805023	          0.31656970	         -0.44101595	          1.24307859	          0.22935074	         -0.38351573	          0.43710461	          0.64814824	         -0.27172287	          0.33668192	          0.43729718	         -0.33893312	          0.31463591	          0.47660439	         -0.24326206	          1.15042593	          0.09133647	         -0.32547416	          1.38213339	          0.11459650	         -0.33306012	          1.34594679	          0.03631410	         -0.40094974	          0.98786338	          1.51748555	         -0.50929074	          1.06531524	          1.48392329	         -0.20047987	          1.09114713	          1.45574764	         -0.33959321	          0.96552360	          1.52745125	         -0.34492242	          0.96898258	          1.39497745	         -0.11508317	          1.01539741	          1.33424822	         -0.09561243	          0.95820560	          1.26440403	         -0.03799769	          0.93203010	          1.20610761	         -0.00486700	          0.90910084	          1.17795203	         -0.08875093	          0.85973139	          1.47380923	         -0.53656593	          0.85248705	          1.39772651	         -0.58213007	          0.75754640	          1.37124043	         -0.58639926	          0.71223322	          1.31614146	         -0.60356714	          0.71133561	          1.28962756	         -0.51782644	          1.02487936	          1.15644881	         -0.03770944	          1.14501194	          1.13203851	         -0.17389875	          1.14363428	          1.08560618	         -0.12259371	          0.75420724	          1.24577108	         -0.61807119	          0.92889327	          1.17890416	         -0.57106066	          0.89310398	          1.12782184	         -0.60686691	
2.12	        -15.42185439	          2.95431248	          2.44476307	          1.03347036	          0.96558235	         -0.35006904	          6.30828328	          0.49134604	         -1.91030588	        -96.21129552	         -8.11121885	         44.31804561	          8.52461539	        -10.13469172	        -24.58992445	         -0.85080755	          6.45281516	         -4.17657745	          8.36689512	        -26.69974864	        -18.76217642	         -8.22037260	        105.51519187	        116.32838319	        -52.82995910	        -17.20748018	        -15.38223707	        117.43076490	        102.62723360	          0.00000000	          0.00000000	          0.00000000	          0.00000000	          0.00000000	          0.00000000	          0.00000000	          0.00000000	          1.05037502	          0.99849681	         -0.43373873	          1.06595850	          0.99810478	         -0.23685215	          0.88443618	          1.06998593	         -0.39862550	          0.89951814	          1.06197181	         -0.28483073	          0.97186306	          0.88068883	         -0.19441409	          0.88490620	          0.75160606	         -0.21316221	          0.88938715	          0.59349557	         -0.22024557	          0.99361574	          0.89166897	         -0.53413666	          0.98752826	          0.72778618	         -0.47998755	          1.09122712	          0.62618661	         -0.48390941	          0.73316173	          0.45409965	         -0.28571948	          0.70191566	          0.54624995	         -0.22341281	          0.55209037	          0.51872517	         -0.28917866	          1.21992000	          0.43311844	         -0.41783673	          1.14087727	          0.31040688	         -0.43769450	          1.21715622	          0.21869219	         -0.37575366	          0.46604194	          0.66102185	         -0.27566969	          0.36356049	          0.44681132	         -0.32818910	          0.34364821	          0.49210081	         -0.23476698	          1.10967385	          0.09294343	         -0.31556568	          1.34402449	          0.09236994	         -0.32525391	          1.29919647	          0.02886428	         -0.40110116	          0.98912064	          1.50717345	         -0.51171527	          1.06196822	          1.47605284	         -0.20009687	          1.09082445	          1.44869023	         -0.33859251	          0.96441504	          1.51884461	         -0.34624591	          0.96340176	          1.38785289	         -0.11651177	          1.00916855	          1.32691275	         -0.09479752	          0.95064842	          1.25776970	         -0.03847813	          0.92266272	          1.20151879	         -0.00456736	          0.90142096	          1.17230956	         -0.08900325	          0.86152665	          1.45989953	         -0.54085095	          0.85734995	          1.38233189	         -0.58452147	          0.76296003	          1.35321325	         -0.58886679	          0.71933664	          1.29707874	         -0.60613699	          0.71844606	          1.27180443	         -0.51992293	          1.01363321	          1.14486859	         -0.03152896	          1.13651002	          1.10492009	         -0.16285324	          1.12942748	          1.06128526	         -0.10977437	          0.76260297	          1.22676887	         -0.61927588	          0.93824251	          1.16371793	         -0.57007570	          0.90351419	          1.11144951	         -0.60504914	
